HIERARCHY
ROOT hip
{
  OFFSET 0 0 0
  CHANNELS 6 Xposition Yposition Zposition Zrotation Yrotation Xrotation
  JOINT abdomen
  {
    OFFSET 0 20.6881 -0.73152
    CHANNELS 3 Zrotation Xrotation Yrotation
    JOINT chest
    {
      OFFSET 0 11.7043 -0.48768
      CHANNELS 3 Zrotation Xrotation Yrotation
      JOINT neck
      {
        OFFSET 0 22.1894 -2.19456
        CHANNELS 3 Zrotation Xrotation Yrotation
        JOINT head
        {
          OFFSET -0.24384 7.07133 1.2192
          CHANNELS 3 Zrotation Xrotation Yrotation
          JOINT leftEye
          {
            OFFSET 4.14528 8.04674 8.04672
            CHANNELS 3 Zrotation Xrotation Yrotation
            End Site
            {
              OFFSET 1 0 0
            }
          }
          JOINT rightEye
          {
            OFFSET -3.6576 8.04674 8.04672
            CHANNELS 3 Zrotation Xrotation Yrotation
            End Site
            {
              OFFSET 1 0 0
            }
          }
        }
      }
      JOINT rCollar
      {
        OFFSET -2.68224 19.2634 -4.8768
        CHANNELS 3 Zrotation Xrotation Yrotation
        JOINT rShldr
        {
          OFFSET -8.77824 -1.95073 1.46304
          CHANNELS 3 Zrotation Xrotation Yrotation
          JOINT rForeArm
          {
            OFFSET -28.1742 -1.7115 0.48768
            CHANNELS 3 Zrotation Xrotation Yrotation
            JOINT rHand
            {
              OFFSET -22.5879 0.773209 7.07136
              CHANNELS 3 Zrotation Xrotation Yrotation
              JOINT rThumb1
              {
                OFFSET -1.2192 -0.487915 3.41376
                CHANNELS 3 Zrotation Xrotation Yrotation
                JOINT rThumb2
                {
                  OFFSET -3.37035 -0.52449 3.41376
                  CHANNELS 3 Zrotation Xrotation Yrotation
                  End Site
                  {
                    OFFSET -1.78271 -1.18214 1.43049
                  }
                }
              }
              JOINT rIndex1
              {
                OFFSET -7.75947 0.938293 5.60832
                CHANNELS 3 Zrotation Xrotation Yrotation
                JOINT rIndex2
                {
                  OFFSET -2.54057 -0.884171 1.56538
                  CHANNELS 3 Zrotation Xrotation Yrotation
                  End Site
                  {
                    OFFSET -1.62519 -0.234802 1.16502
                  }
                }
              }
              JOINT rMid1
              {
                OFFSET -8.24714 1.18213 3.41376
                CHANNELS 3 Zrotation Xrotation Yrotation
                JOINT rMid2
                {
                  OFFSET -3.10165 -0.590103 1.0647
                  CHANNELS 3 Zrotation Xrotation Yrotation
                  End Site
                  {
                    OFFSET -2.48547 -0.328903 0.83742
                  }
                }
              }
              JOINT rRing1
              {
                OFFSET -8.82822 0.546677 1.51678
                CHANNELS 3 Zrotation Xrotation Yrotation
                JOINT rRing2
                {
                  OFFSET -2.60934 -0.819778 -0.0198488
                  CHANNELS 3 Zrotation Xrotation Yrotation
                  End Site
                  {
                    OFFSET -2.33842 -0.294052 0.168128
                  }
                }
              }
              JOINT rPinky1
              {
                OFFSET -8.27202 -0.0477905 -0.4584
                CHANNELS 3 Zrotation Xrotation Yrotation
                JOINT rPinky2
                {
                  OFFSET -1.82734 -0.647385 -0.700984
                  CHANNELS 3 Zrotation Xrotation Yrotation
                  End Site
                  {
                    OFFSET -1.69225 -0.51767 -0.607171
                  }
                }
              }
            }
          }
        }
      }
      JOINT lCollar
      {
        OFFSET 2.68224 19.2634 -4.8768
        CHANNELS 3 Zrotation Xrotation Yrotation
        JOINT lShldr
        {
          OFFSET 8.77824 -1.95073 1.46304
          CHANNELS 3 Zrotation Xrotation Yrotation
          JOINT lForeArm
          {
            OFFSET 28.1742 -1.7115 0.48768
            CHANNELS 3 Zrotation Xrotation Yrotation
            JOINT lHand
            {
              OFFSET 22.5879 0.773209 7.07136
              CHANNELS 3 Zrotation Xrotation Yrotation
              JOINT lThumb1
              {
                OFFSET 1.2192 -0.487915 3.41376
                CHANNELS 3 Zrotation Xrotation Yrotation
                JOINT lThumb2
                {
                  OFFSET 3.37035 -0.52449 3.41376
                  CHANNELS 3 Zrotation Xrotation Yrotation
                  End Site
                  {
                    OFFSET 1.78271 -1.18214 1.43049
                  }
                }
              }
              JOINT lIndex1
              {
                OFFSET 7.75947 0.938293 5.60832
                CHANNELS 3 Zrotation Xrotation Yrotation
                JOINT lIndex2
                {
                  OFFSET 2.54057 -0.884171 1.56538
                  CHANNELS 3 Zrotation Xrotation Yrotation
                  End Site
                  {
                    OFFSET 1.62519 -0.234802 1.16502
                  }
                }
              }
              JOINT lMid1
              {
                OFFSET 8.24714 1.18213 3.41376
                CHANNELS 3 Zrotation Xrotation Yrotation
                JOINT lMid2
                {
                  OFFSET 3.10165 -0.590103 1.0647
                  CHANNELS 3 Zrotation Xrotation Yrotation
                  End Site
                  {
                    OFFSET 2.48547 -0.328903 0.83742
                  }
                }
              }
              JOINT lRing1
              {
                OFFSET 8.82822 0.546677 1.51678
                CHANNELS 3 Zrotation Xrotation Yrotation
                JOINT lRing2
                {
                  OFFSET 2.60934 -0.819778 -0.0198488
                  CHANNELS 3 Zrotation Xrotation Yrotation
                  End Site
                  {
                    OFFSET 2.33842 -0.294052 0.168128
                  }
                }
              }
              JOINT lPinky1
              {
                OFFSET 8.27202 -0.0477905 -0.4584
                CHANNELS 3 Zrotation Xrotation Yrotation
                JOINT lPinky2
                {
                  OFFSET 1.82734 -0.647385 -0.700984
                  CHANNELS 3 Zrotation Xrotation Yrotation
                  End Site
                  {
                    OFFSET 1.69225 -0.51767 -0.607171
                  }
                }
              }
            }
          }
        }
      }
    }
  }
  JOINT rButtock
  {
    OFFSET -8.77824 4.35084 1.2192
    CHANNELS 3 Zrotation Xrotation Yrotation
    JOINT rThigh
    {
      OFFSET 0 -1.70687 -2.19456
      CHANNELS 3 Zrotation Xrotation Yrotation
      JOINT rShin
      {
        OFFSET 0 -36.8199 0.73152
        CHANNELS 3 Zrotation Xrotation Yrotation
        JOINT rFoot
        {
          OFFSET 0.73152 -45.1104 -5.12064
          CHANNELS 3 Zrotation Xrotation Yrotation
          End Site
          {
            OFFSET -1.1221 -3.69964 12.103
          }
        }
      }
    }
  }
  JOINT lButtock
  {
    OFFSET 8.77824 4.35084 1.2192
    CHANNELS 3 Zrotation Xrotation Yrotation
    JOINT lThigh
    {
      OFFSET 0 -1.70687 -2.19456
      CHANNELS 3 Zrotation Xrotation Yrotation
      JOINT lShin
      {
        OFFSET 0 -36.8199 0.73152
        CHANNELS 3 Zrotation Xrotation Yrotation
        JOINT lFoot
        {
          OFFSET -0.73152 -45.1104 -5.12064
          CHANNELS 3 Zrotation Xrotation Yrotation
          End Site
          {
            OFFSET 1.1221 -3.69964 12.103
          }
        }
      }
    }
  }
}
MOTION
Frames:	5
Frame Time:	0.00833333
284.609 83.4871 105.575 0.0 0.0 0.0 -2.59964 0.000365975 -0.0702747 -0.716703 0.0122899 -0.12403 3.93667e-15 7.95139e-16 -1.14301e-15 1.1896e-14 9.54166e-15 -3.53309e-15 -0.0 0.0 0.0 -0.0 0.0 0.0 2.08605e-15 1.18417e-17 -5.46658e-16 4.17227e-14 3.41661e-16 -1.11319e-14 6.99026e-13 -1.95207e-13 -2.29e-13 8.00364e-12 2.40629e-13 -2.37587e-12 1.88816e-11 9.52768e-14 -5.63594e-12 3.2611e-11 1.59028e-13 -9.7484e-12 1.88865e-11 9.66093e-14 -5.64548e-12 7.73091 5.47488 0.417314 1.88833e-11 9.53172e-14 -5.63594e-12 2.90554 0.965183 0.102902 1.88994e-11 9.59136e-14 -5.6431e-12 10.2786 0.731801 0.0259123 1.8879e-11 9.50191e-14 -5.6423e-12 2.22167 -0.733487 -0.20892 1.98917e-15 1.28123e-17 -7.45443e-16 3.7414e-14 1.49089e-16 -1.31198e-14 7.04095e-13 2.09718e-13 -2.60805e-13 8.00345e-12 -1.66209e-13 -2.33771e-12 1.88949e-11 9.1015e-14 -5.65821e-12 3.26357e-11 1.55847e-13 -9.7484e-12 1.88853e-11 9.46215e-14 -5.64867e-12 -7.73091 5.47488 -0.417314 1.8894e-11 9.19379e-14 -5.65185e-12 -2.90554 0.965183 -0.102902 1.88816e-11 9.18385e-14 -5.64787e-12 -10.2786 0.731801 -0.0259123 1.88959e-11 8.94531e-14 -5.65185e-12 -2.22167 -0.733487 0.20892 -2.03217e-16 0.0 -3.88251e-19 -1.50093 -1.93106 0.00777003 -0.0087211 -2.07863 -0.0717104 -0.472581 3.99921 0.134499 2.03217e-16 0.0 3.88251e-19 -2.45054 -8.43845 0.261217 -0.00685619 9.70807 -0.175591 0.523324 -1.28 -0.0328453
279.788 82.0712 94.8953 -170.472 -58.3153 173.763 -1.5982 -0.887701 -0.555968 -1.10722 0.88336 -0.272697 0.233331 3.96815 -0.935448 1.70874 -8.93223 -1.43155 -0.0 0.0 0.0 -0.0 0.0 0.0 -1.68602e-14 8.33222e-14 3.81238e-13 22.669 5.76426 -0.406113 -4.28538 -1.96033 6.67903 5.82356e-05 -0.169341 -0.023799 -1.00958e-09 -2.73641e-09 6.59705e-10 -1.74661e-09 -4.73953e-09 1.1436e-09 -1.00958e-09 -2.73641e-09 6.59695e-10 7.73091 5.47488 0.417314 -1.00958e-09 -2.73641e-09 6.59706e-10 2.90554 0.965183 0.102902 -1.00957e-09 -2.73641e-09 6.59698e-10 10.2786 0.731801 0.0259123 -1.00959e-09 -2.73641e-09 6.597e-10 2.22167 -0.733487 -0.20892 -1.69215e-14 8.33241e-14 3.81024e-13 -22.0289 5.91392 -0.549678 3.44619 -1.43828 -5.51319 -0.0579368 -5.34354 0.73924 -3.60313e-10 3.65788e-10 1.22886e-09 -6.43234e-10 6.3446e-10 2.1206e-09 -3.60321e-10 3.6579e-10 1.22887e-09 -7.73091 5.47488 -0.417314 -3.60311e-10 3.65788e-10 1.22886e-09 -2.90554 0.965183 -0.102902 -3.60326e-10 3.65787e-10 1.22887e-09 -10.2786 0.731801 -0.0259123 -3.60311e-10 3.65786e-10 1.22887e-09 -2.22167 -0.733487 0.20892 -2.03217e-16 0.0 -3.88251e-19 -0.212697 -6.02131 0.0661508 0.0368884 7.90018 0.130364 -0.988653 -2.54082 -3.83242 2.03217e-16 0.0 3.88251e-19 -1.55593 -9.83453 2.82803 -0.0151904 15.8646 -0.271138 0.799305 -6.27592 1.85268
279.681 82.0755 95.0053 -171.745 -58.3981 174.687 -0.504323 -1.84131 -1.06807 -1.52675 1.80906 -0.429247 0.622045 8.15946 -1.93947 3.00637 -18.3559 -3.06539 -0.0 0.0 0.0 -0.0 0.0 0.0 -3.78415e-14 1.76289e-13 8.12284e-13 46.7241 11.8559 -0.848869 -8.32243 -3.94396 13.7648 -3.33043e-05 -0.348903 -0.049035 -2.15217e-09 -5.76945e-09 1.3973e-09 -3.72322e-09 -9.99275e-09 2.42219e-09 -2.15216e-09 -5.76945e-09 1.39729e-09 7.73091 5.47488 0.417314 -2.15217e-09 -5.76945e-09 1.3973e-09 2.90554 0.965183 0.102902 -2.15215e-09 -5.76945e-09 1.3973e-09 10.2786 0.731801 0.0259123 -2.15217e-09 -5.76945e-09 1.3973e-09 2.22167 -0.733487 -0.20892 -3.78638e-14 1.76292e-13 8.12054e-13 -45.1903 12.1656 -1.15137 6.79159 -2.91545 -11.3553 0.0332917 -10.9911 1.54263 -7.81341e-10 7.70905e-10 2.59179e-09 -1.39349e-09 1.33712e-09 4.47248e-09 -7.81349e-10 7.70904e-10 2.5918e-09 -7.73091 5.47488 -0.417314 -7.81338e-10 7.70904e-10 2.5918e-09 -2.90554 0.965183 -0.102902 -7.81354e-10 7.70902e-10 2.5918e-09 -10.2786 0.731801 -0.0259123 -7.81338e-10 7.70901e-10 2.5918e-09 -2.22167 -0.733487 0.20892 -2.03217e-16 0.0 -3.88251e-19 1.2 -10.344 0.12939 0.00523602 18.4275 0.359447 -2.5255 -9.36107 -8.12997 2.03217e-16 0.0 3.88251e-19 -0.429213 -11.3068 5.568 0.000926775 22.4013 -0.382864 1.45596 -11.5519 3.8996
279.575 82.0814 95.1159 -173.014 -58.4887 175.611 0.359465 -2.66301 -1.52881 -1.87468 2.6254 -0.570534 1.0958 11.8916 -2.86107 3.65258 -26.7256 -4.75109 -0.0 0.0 0.0 -0.0 0.0 0.0 -5.47528e-14 2.49943e-13 1.14481e-12 68.2619 17.2892 -1.26955 -11.5107 -5.56199 20.1241 -0.000247344 -0.508024 -0.0713995 -3.06651e-09 -8.20941e-09 1.99039e-09 -5.30505e-09 -1.42189e-08 3.4503e-09 -3.0665e-09 -8.20942e-09 1.99038e-09 7.73091 5.47488 0.417314 -3.06651e-09 -8.20942e-09 1.99039e-09 2.90554 0.965183 0.102902 -3.0665e-09 -8.20941e-09 1.99038e-09 10.2786 0.731801 0.0259123 -3.06651e-09 -8.20941e-09 1.99038e-09 2.22167 -0.733487 -0.20892 -5.47428e-14 2.49947e-13 1.14456e-12 -65.732 17.7351 -1.72212 9.51917 -4.15532 -16.5792 0.253955 -16.0197 2.29734 -1.11873e-09 1.09718e-09 3.69789e-09 -1.99497e-09 1.90307e-09 6.38129e-09 -1.11873e-09 1.09718e-09 3.69789e-09 -7.73091 5.47488 -0.417314 -1.11872e-09 1.09718e-09 3.69789e-09 -2.90554 0.965183 -0.102902 -1.11874e-09 1.09718e-09 3.6979e-09 -10.2786 0.731801 -0.0259123 -1.11872e-09 1.09718e-09 3.6979e-09 -2.22167 -0.733487 0.20892 -2.03217e-16 0.0 -3.88251e-19 2.38949 -14.2017 0.187558 -0.103829 27.8566 0.600269 -4.7928 -15.3019 -12.1928 2.03217e-16 0.0 3.88251e-19 0.615562 -12.5414 8.03549 0.0387123 28.1772 -0.494933 2.37134 -16.198 5.82226
279.47 82.0917 95.2173 -174.207 -58.5733 176.454 0.68093 -3.15576 -1.85967 -2.05322 3.16844 -0.673201 1.5002 14.4881 -3.52452 3.75281 -32.5273 -6.13673 -0.0 0.0 0.0 -0.0 0.0 0.0 -6.14888e-14 2.75315e-13 1.23102e-12 83.3238 21.08 -1.58661 -13.5154 -6.56997 24.5841 -0.000465479 -0.616046 -0.0865829 -3.41024e-09 -9.16669e-09 2.22218e-09 -5.89992e-09 -1.58773e-08 3.85222e-09 -3.41024e-09 -9.16669e-09 2.22217e-09 7.73091 5.47488 0.417314 -3.41024e-09 -9.16669e-09 2.22218e-09 2.90554 0.965183 0.102902 -3.41023e-09 -9.16669e-09 2.22217e-09 10.2786 0.731801 0.0259123 -3.41025e-09 -9.16668e-09 2.22218e-09 2.22167 -0.733487 -0.20892 -6.14635e-14 2.75319e-13 1.23078e-12 -79.9811 21.6051 -2.14578 11.2772 -4.95455 -20.2196 0.490889 -19.5116 2.85451 -1.24701e-09 1.22636e-09 4.16188e-09 -2.22455e-09 2.12725e-09 7.18244e-09 -1.24701e-09 1.22636e-09 4.16189e-09 -7.73091 5.47488 -0.417314 -1.247e-09 1.22636e-09 4.16188e-09 -2.90554 0.965183 -0.102902 -1.24702e-09 1.22636e-09 4.16189e-09 -10.2786 0.731801 -0.0259123 -1.247e-09 1.22636e-09 4.16189e-09 -2.22167 -0.733487 0.20892 -2.03217e-16 0.0 -3.88251e-19 3.00245 -16.8973 0.228839 -0.238881 34.5414 0.807209 -6.91492 -19.362 -15.2199 2.03217e-16 0.0 3.88251e-19 1.17418 -13.2522 9.76231 0.0768264 32.0516 -0.579831 3.19885 -19.3349 7.24858
